<svg xmlns="http://www.w3.org/2000/svg" xmlns:xlink="http://www.w3.org/1999/xlink" width="621" height="549.5" viewBox="0 0 621 549.5">
  <defs>
    <clipPath id="clip-path">
      <path id="Subtraction_1" data-name="Subtraction 1" d="M508.675,549.5h-396.4c-7.79-6.468-15.355-13.4-22.486-20.607-1.725-1.786-2.777-2.913-2.785-2.923l-.026.045a310.879,310.879,0,0,1-63.68-97.31A308.99,308.99,0,0,1,6.017,371.633a313.539,313.539,0,0,1,.291-123.71A308.8,308.8,0,0,1,53.029,136.9,311.406,311.406,0,0,1,189.64,24.4,308.936,308.936,0,0,1,247.923,6.308a313.528,313.528,0,0,1,125.153,0A308.8,308.8,0,0,1,484.1,53.029,311.407,311.407,0,0,1,596.6,189.64a308.935,308.935,0,0,1,18.092,58.284,313.638,313.638,0,0,1,1.149,119.242,308.536,308.536,0,0,1-38.515,102.215A312.318,312.318,0,0,1,545.81,513.09a7.672,7.672,0,0,0-.975,1.067c-.149.193-.307.393-.468.6-3.121,3.57-6.364,7.114-9.639,10.532C523.6,536.47,509.214,548.876,509.07,549c0,0-.159.195-.395.5Z" transform="translate(917 245)" fill="#e2f7f6"/>
    </clipPath>
  </defs>
  <g id="Success-ilu-icon" transform="translate(-917 -245)" clip-path="url(#clip-path)">
    <g id="Group_1" data-name="Group 1">
      <circle id="Ellipse_2" data-name="Ellipse 2" cx="310.5" cy="310.5" r="310.5" transform="translate(917 245)" fill="#e2f7f6"/>
      <g id="success" transform="translate(1004 333.692)">
        <g id="Rectangle_1" data-name="Rectangle 1" transform="translate(0 10.308)" fill="#fff" stroke="#69d6c7" stroke-width="17">
          <path d="M25,0H430a25,25,0,0,1,25,25V484a0,0,0,0,1,0,0H0a0,0,0,0,1,0,0V25A25,25,0,0,1,25,0Z" stroke="none"/>
          <path d="M25,8.5H430A16.5,16.5,0,0,1,446.5,25V467a8.5,8.5,0,0,1-8.5,8.5H17A8.5,8.5,0,0,1,8.5,467V25A16.5,16.5,0,0,1,25,8.5Z" fill="none"/>
        </g>
        <path id="Path_9" data-name="Path 9" d="M189.745,51.005H42.611a21.62,21.62,0,0,0,0,43.239H189.745a21.62,21.62,0,0,0,0-43.239ZM42.611,76.949a4.324,4.324,0,0,1,0-8.648H189.745a4.324,4.324,0,0,1,0,8.648Z" transform="translate(111.517 359.502)" fill="#c6f1ef"/>
        <path id="Path_10" data-name="Path 10" d="M267.867,47.009H25.641a8.648,8.648,0,1,0,0,17.3H267.867a8.648,8.648,0,1,0,0-17.3Z" transform="translate(80.927 328.942)" fill="#c6f1ef"/>
        <path id="Path_11" data-name="Path 11" d="M318.677,44.008H14.6c-3.654,0-6.608,3.866-6.608,8.648S10.945,61.3,14.6,61.3H318.677c3.654,0,6.608-3.866,6.608-8.648S322.331,44.008,318.677,44.008Z" transform="translate(61.114 300.99)" fill="#c6f1ef"/>
      </g>
      <g id="yes" transform="translate(1102 397.093)">
        <circle id="Ellipse_1" data-name="Ellipse 1" cx="88.5" cy="88.5" r="88.5" transform="translate(41 40.907)" fill="#c6f1ef" opacity="0.5"/>
        <path id="Path_12" data-name="Path 12" d="M76.733,137.984l37.495,35.932,61.71-62.491,3.906-10.936L161.1,86.429l-46.868,42.181-16.4-13.279Z" fill="#fff"/>
        <path id="Path_1" data-name="Path 1" d="M233.7,152.156a7.585,7.585,0,0,0-10.727,0l-41.988,41.987L169.337,182.5a7.585,7.585,0,0,0-10.726,0L137.157,203.95a7.585,7.585,0,0,0,0,10.727l38.465,38.465a7.587,7.587,0,0,0,10.727,0l68.805-68.805a7.587,7.587,0,0,0,0-10.727Zm-52.715,84.9-27.737-27.738,10.726-10.726,11.648,11.647a7.585,7.585,0,0,0,10.726,0l41.988-41.987,10.726,10.726Z" transform="translate(-66.702 -74.116)" fill="#07bea2"/>
        <path id="Path_2" data-name="Path 2" d="M129.453,0C58.174,0,0,58.178,0,129.453S58.178,258.907,129.453,258.907s129.453-58.178,129.453-129.453S200.729,0,129.453,0Zm0,243.736A114.283,114.283,0,1,1,243.736,129.453,114.412,114.412,0,0,1,129.453,243.736Z" fill="#07bea2"/>
      </g>
    </g>
  </g>
</svg>
